<svg xmlns="http://www.w3.org/2000/svg" xmlns:xlink="http://www.w3.org/1999/xlink" width="40" height="40" viewBox="0 0 58 58"><defs><style>.a{fill:#fff;}.b{fill:#3d4162;}.c{filter:url(#a);}</style><filter id="a" x="0" y="0" width="58" height="58" filterUnits="userSpaceOnUse"><feOffset input="SourceAlpha"/><feGaussianBlur stdDeviation="3" result="b"/><feFlood flood-opacity="0.161"/><feComposite operator="in" in2="b"/><feComposite in="SourceGraphic"/></filter></defs><g transform="translate(9 8.603)"><g class="c" transform="matrix(1, 0, 0, 1, -9, -8.6)"><circle class="a" cx="20" cy="20" r="20" transform="translate(9 9)"/></g><path class="b" d="M5.731,1.975,10.063,6.31a.815.815,0,0,0,1.156,0,.826.826,0,0,0,0-1.16L6.311.238A.817.817,0,0,0,5.182.215L.239,5.147A.819.819,0,1,0,1.4,6.307Z" transform="matrix(-0.017, -1, 1, -0.017, 16.45, 25.57)"/></g></svg>