<svg xmlns="http://www.w3.org/2000/svg" width="22" height="18.402" viewBox="0 0 22 18.402">
  <g id="share_2_" data-name="share (2)" transform="translate(-0.001 -30.238)">
    <g id="Group_4064" data-name="Group 4064" transform="translate(0.323 30.545)">
      <path id="Path_20536" data-name="Path 20536" d="M28.061,43.438l-6.459-5.5a.767.767,0,0,0-1.271.538v2.468A14.426,14.426,0,0,0,8.8,48.716a13.7,13.7,0,0,0-1.3,5.6,1.209,1.209,0,0,0,1,1.189l.01,0a1.287,1.287,0,0,0,1.357-.574c2.255-3.7,4.906-5.943,9.541-6.011.3,0,.613,0,.926.015v2.843a.767.767,0,0,0,1.271.538l6.459-5.5a2.2,2.2,0,0,0,0-3.382Z" transform="translate(-7.501 -37.749)" fill="#f6881b" opacity="0.1"/>
      <path id="Path_20537" data-name="Path 20537" d="M9.9,140.464a14.018,14.018,0,0,1,.514-2.166,13.553,13.553,0,0,1,7.11-7.824A13.915,13.915,0,0,0,8.8,137.662a13.7,13.7,0,0,0-1.3,5.6,1.208,1.208,0,0,0,1,1.189l.01,0a1.291,1.291,0,0,0,1.316-.513A14.239,14.239,0,0,1,9.9,140.464Z" transform="translate(-7.501 -126.695)" fill="#f6881b" opacity="0.2"/>
    </g>
    <g id="Group_4065" data-name="Group 4065" transform="translate(0.001 30.238)">
      <path id="Path_20538" data-name="Path 20538" d="M18.1,304.625l-3.893,3.316a.442.442,0,0,1-.734-.31v-2.843a.313.313,0,0,0-.307-.305c-.333-.015-.652-.02-.946-.015a10.371,10.371,0,0,0-5.845,1.7,13.826,13.826,0,0,0-3.97,4.465.956.956,0,0,1-1.01.428l-.01,0a.9.9,0,0,1-.741-.884,14.072,14.072,0,0,1,.505-3.436,15.532,15.532,0,0,1,.626-1.747.3.3,0,0,0-.173-.4.329.329,0,0,0-.422.164,16.1,16.1,0,0,0-.652,1.816v0A14.665,14.665,0,0,0,0,310.161,1.546,1.546,0,0,0,1.6,311.692a1.6,1.6,0,0,0,1.369-.754,13.238,13.238,0,0,1,3.786-4.273,9.726,9.726,0,0,1,5.481-1.585c.189,0,.39,0,.6,0v2.548a1.091,1.091,0,0,0,1.809.765l3.893-3.316a.3.3,0,0,0,.024-.432.335.335,0,0,0-.455-.023Z" transform="translate(-0.001 -293.29)" fill="#f6881b"/>
      <path id="Path_20539" data-name="Path 20539" d="M60.154,36.005l-6.459-5.5a1.092,1.092,0,0,0-1.809.765v2.2A14.85,14.85,0,0,0,40.85,40.511a.3.3,0,0,0,.127.415.332.332,0,0,0,.438-.121A14.263,14.263,0,0,1,52.25,34.04a.312.312,0,0,0,.281-.3V31.269a.442.442,0,0,1,.734-.31l6.459,5.5a1.9,1.9,0,0,1,0,2.928l-1.606,1.368a.3.3,0,0,0,.215.533.331.331,0,0,0,.215-.078l1.606-1.368a2.491,2.491,0,0,0,0-3.837Z" transform="translate(-39.056 -30.238)" fill="#f6881b"/>
      <path id="Path_20540" data-name="Path 20540" d="M149.708,219.942v-.683a.323.323,0,0,0-.645,0v.683a.323.323,0,0,0,.645,0Z" transform="translate(-142.658 -211.262)" fill="#f6881b"/>
      <path id="Path_20541" data-name="Path 20541" d="M323.787,220.247a.314.314,0,0,0,.322-.306v-.683a.323.323,0,0,0-.645,0v.683A.314.314,0,0,0,323.787,220.247Z" transform="translate(-309.566 -211.262)" fill="#f6881b"/>
      <path id="Path_20542" data-name="Path 20542" d="M215.814,235.715a.3.3,0,0,0-.031-.431.335.335,0,0,0-.455.03,1.023,1.023,0,0,1-1.49,0,.335.335,0,0,0-.455-.03.3.3,0,0,0-.031.431A1.691,1.691,0,0,0,215.814,235.715Z" transform="translate(-204.109 -226.855)" fill="#f6881b"/>
    </g>
  </g>
</svg>
