<svg id="Thumnails" xmlns="http://www.w3.org/2000/svg" width="60" height="60" viewBox="0 0 60 60">
  <rect id="Thumbnail" width="60" height="60" rx="10" fill="#ff6f00"/>
  <g id="office-chair-silhouette" transform="translate(20 14)">
    <path id="Path_5" data-name="Path 5" d="M54.545,12.944a.761.761,0,0,0-.76.761v4.377A2.283,2.283,0,0,1,51.9,20.328c-.24-.621-1.1-1.054-2.3-1.054H46.2l.046-.443c.018-.193.027-.374.027-.558H49.6a2.763,2.763,0,0,0,2.795-3.034l-1.018-12.2A3.379,3.379,0,0,0,48.071,0h-6.09a3.38,3.38,0,0,0-3.3,3.035l-1.018,12.2a2.762,2.762,0,0,0,2.794,3.034h3.321a5.275,5.275,0,0,0,.028.558l.046.443H40.458c-1.2,0-2.061.433-2.3,1.054a2.286,2.286,0,0,1-1.888-2.245V13.707a.76.76,0,1,0-1.521,0v4.377a3.814,3.814,0,0,0,3.808,3.811h.209a5.172,5.172,0,0,0,3.217,1.092h2.242l.4,4.047H42.623c-1.859,0-3.688,1.044-4.166,2.377L37.9,30.976a.79.79,0,0,0-.77.688.96.96,0,0,0,1.856,0,.652.652,0,0,0-.333-.534l.523-1.464c.364-1.017,1.943-1.871,3.449-1.871h2.026v3.223a.73.73,0,0,0-.546.645.959.959,0,0,0,1.855,0,.729.729,0,0,0-.548-.645V27.8h2.026c1.5,0,3.086.858,3.447,1.871l.524,1.464a.655.655,0,0,0-.333.534.96.96,0,0,0,1.857,0,.789.789,0,0,0-.771-.688L51.6,29.41c-.478-1.335-2.309-2.377-4.166-2.377H45.425l.406-4.047h2.243a5.159,5.159,0,0,0,3.215-1.092H51.5a3.815,3.815,0,0,0,3.81-3.811V13.707A.766.766,0,0,0,54.545,12.944ZM41.339,5.71h7.374a.381.381,0,1,1,0,.761H41.339a.381.381,0,0,1,0-.761Zm0,2.284h7.374a.381.381,0,1,1,0,.761H41.339a.381.381,0,0,1,0-.761Zm0,3.048a.38.38,0,0,1,0-.761h7.374a.38.38,0,1,1,0,.761Z" transform="translate(-34.748)" fill="#fff"/>
  </g>
</svg>
