<svg xmlns="http://www.w3.org/2000/svg" width="44" height="44" viewBox="0 0 44 44"><defs><style>.a{fill:#50586f;}.b{fill:#f1f2f2;}</style></defs><path class="a" d="M1044,403a22,22,0,1,0-22-22A22,22,0,0,0,1044,403Z" transform="translate(-1022 -359)"/><path class="b" d="M1057.58,374.726a10.565,10.565,0,0,1-3.04.834,5.369,5.369,0,0,0,2.33-2.935,10.6,10.6,0,0,1-3.37,1.285,5.307,5.307,0,0,0-9.04,4.84,15.056,15.056,0,0,1-10.94-5.54,5.317,5.317,0,0,0,1.64,7.084,5.284,5.284,0,0,1-2.4-.664v.067a5.306,5.306,0,0,0,4.26,5.2,5.341,5.341,0,0,1-2.4.092,5.292,5.292,0,0,0,4.95,3.685,10.7,10.7,0,0,1-7.85,2.2,15.082,15.082,0,0,0,23.23-12.716c0-.23,0-.459-.01-.686a10.839,10.839,0,0,0,2.64-2.746Z" transform="translate(-1022 -359)"/></svg>