<svg xmlns="http://www.w3.org/2000/svg" width="92" height="92" viewBox="0 0 92 92"><defs><style>.a{fill:#ff9934;opacity:0.5;}.b{fill:#fff;}</style></defs><circle class="a" cx="46" cy="46" r="46"/><g transform="translate(28 26)"><path class="b" d="M38.716,36.552,27.666,25.5A15.608,15.608,0,1,0,25.5,27.666l11.05,11.05a1.53,1.53,0,0,0,2.164-2.164ZM24.474,24.473a12.548,12.548,0,1,1,0-17.746A12.562,12.562,0,0,1,24.474,24.473Z" transform="translate(0 0)"/><g transform="translate(6.579 6.579)"><path class="b" d="M102.519,93.5H96.557V87.535a1.53,1.53,0,0,0-3.06,0V93.5H87.535a1.53,1.53,0,0,0,0,3.06H93.5v5.962a1.53,1.53,0,0,0,3.06,0V96.557h5.962a1.53,1.53,0,1,0,0-3.06Z" transform="translate(-86.005 -86.005)"/></g></g></svg>