<svg xmlns="http://www.w3.org/2000/svg" width="60" height="60" viewBox="0 0 60 60">
  <g id="Thumnails" transform="translate(-398 -1228)">
    <rect id="Thumbnail" width="60" height="60" rx="10" transform="translate(398 1228)" fill="#fff1f0"/>
    <g id="Group_4063" data-name="Group 4063" transform="translate(410.25 1240.251)">
      <path id="Path_20530" data-name="Path 20530" d="M30.351,34.007a5.236,5.236,0,0,0-.4-.492,13.457,13.457,0,0,1-5.355,7.85,14.361,14.361,0,0,1-8.2,2.283,24.932,24.932,0,0,1-4.487-.455,16.949,16.949,0,0,0,19.489.042C32.027,40.522,32.324,36.794,30.351,34.007Z" transform="translate(-3.931 -11.546)" fill="#f14545"/>
      <path id="Path_20531" data-name="Path 20531" d="M36.854,18.721a15.274,15.274,0,0,0-10.608-3.108,11.322,11.322,0,0,0,.819,6.8c4.354.513,7.474,2.042,9.255,4.565,1.57,2.223,2.082,5.238,1.512,8.785A17.077,17.077,0,0,0,42.4,29.38,15.114,15.114,0,0,0,36.854,18.721Z" transform="translate(-8.904 -5.218)" fill="#f14545"/>
      <path id="Path_20532" data-name="Path 20532" d="M12.329,35.374l-.277.075a7.982,7.982,0,0,1-1.9.228c-2.372,0-5.058-.968-8.023-2.884a17.029,17.029,0,0,0,4.292,6.777c5.907,1.544,10.634,1.162,14.05-1.14a12.566,12.566,0,0,0,5.016-7.869,13.215,13.215,0,0,0-6.8-2.523C18.24,29.633,16.6,34.158,12.329,35.374Z" transform="translate(-0.486 -9.616)" fill="#f14545"/>
      <path id="Path_20533" data-name="Path 20533" d="M10.495,25.314c-1.6-2.969-4.863-10.182-2.86-16.678A12.75,12.75,0,0,1,12.17,2.213,17.021,17.021,0,0,0,.75,18.265a17.283,17.283,0,0,0,.389,3.612C4.757,24.464,7.9,25.618,10.495,25.314Z" transform="translate(0 -0.516)" fill="#f14545"/>
      <path id="Path_20534" data-name="Path 20534" d="M12.86,8.476c-1.964,6.368,1.7,13.806,2.939,16.05,3.757-1.228,5.118-5.713,5.377-6.706-.471-1-2.239-5.228-.421-9.289,1.28-2.863,4.038-4.946,8.2-6.209A16.884,16.884,0,0,0,19.918.858C16.248,2.636,13.871,5.2,12.86,8.476Z" transform="translate(-4.067)" fill="#f14545"/>
      <path id="Path_20535" data-name="Path 20535" d="M27.049,10.9c-.018.042-.03.085-.049.121a16.628,16.628,0,0,1,10.947,3.406,15.724,15.724,0,0,1,5.6,9.071A16.96,16.96,0,0,0,35.634,5l.012.042C31.189,6.16,28.293,8.127,27.049,10.9Z" transform="translate(-9.25 -1.498)" fill="#f14545"/>
    </g>
  </g>
</svg>
