<svg xmlns="http://www.w3.org/2000/svg" xmlns:xlink="http://www.w3.org/1999/xlink" width="105" height="114" viewBox="0 0 105 114"><defs><style>.a{fill:none;}.b{opacity:0.118;clip-path:url(#a);}.c{fill:#686181;}</style><clipPath id="a"><rect class="a" width="105" height="114"/></clipPath></defs><g class="b"><g transform="translate(-1744 -497)"><circle class="c" cx="3" cy="3" r="3" transform="translate(1744 497)"/></g><g transform="translate(-1728 -497)"><circle class="c" cx="3" cy="3" r="3" transform="translate(1744 497)"/></g><g transform="translate(-1712 -497)"><circle class="c" cx="3" cy="3" r="3" transform="translate(1744 497)"/></g><g transform="translate(-1696 -497)"><circle class="c" cx="3" cy="3" r="3" transform="translate(1744 497)"/></g><g transform="translate(-1680 -497)"><circle class="c" cx="3" cy="3" r="3" transform="translate(1744 497)"/></g><g transform="translate(-1664 -497)"><circle class="c" cx="3" cy="3" r="3" transform="translate(1744 497)"/></g><g transform="translate(-1648 -497)"><circle class="c" cx="3" cy="3" r="3" transform="translate(1744 497)"/></g><g transform="translate(-1744 -479)"><circle class="c" cx="3" cy="3" r="3" transform="translate(1744 497)"/></g><g transform="translate(-1728 -479)"><circle class="c" cx="3" cy="3" r="3" transform="translate(1744 497)"/></g><g transform="translate(-1712 -479)"><circle class="c" cx="3" cy="3" r="3" transform="translate(1744 497)"/></g><g transform="translate(-1696 -479)"><circle class="c" cx="3" cy="3" r="3" transform="translate(1744 497)"/></g><g transform="translate(-1680 -479)"><circle class="c" cx="3" cy="3" r="3" transform="translate(1744 497)"/></g><g transform="translate(-1664 -479)"><circle class="c" cx="3" cy="3" r="3" transform="translate(1744 497)"/></g><g transform="translate(-1648 -479)"><circle class="c" cx="3" cy="3" r="3" transform="translate(1744 497)"/></g><g transform="translate(-1744 -461)"><circle class="c" cx="3" cy="3" r="3" transform="translate(1744 497)"/></g><g transform="translate(-1728 -461)"><circle class="c" cx="3" cy="3" r="3" transform="translate(1744 497)"/></g><g transform="translate(-1712 -461)"><circle class="c" cx="3" cy="3" r="3" transform="translate(1744 497)"/></g><g transform="translate(-1696 -461)"><circle class="c" cx="3" cy="3" r="3" transform="translate(1744 497)"/></g><g transform="translate(-1680 -461)"><circle class="c" cx="3" cy="3" r="3" transform="translate(1744 497)"/></g><g transform="translate(-1664 -461)"><circle class="c" cx="3" cy="3" r="3" transform="translate(1744 497)"/></g><g transform="translate(-1648 -461)"><circle class="c" cx="3" cy="3" r="3" transform="translate(1744 497)"/></g><g transform="translate(-1744 -443)"><circle class="c" cx="3" cy="3" r="3" transform="translate(1744 497)"/></g><g transform="translate(-1728 -443)"><circle class="c" cx="3" cy="3" r="3" transform="translate(1744 497)"/></g><g transform="translate(-1712 -443)"><circle class="c" cx="3" cy="3" r="3" transform="translate(1744 497)"/></g><g transform="translate(-1696 -443)"><circle class="c" cx="3" cy="3" r="3" transform="translate(1744 497)"/></g><g transform="translate(-1680 -443)"><circle class="c" cx="3" cy="3" r="3" transform="translate(1744 497)"/></g><g transform="translate(-1664 -443)"><circle class="c" cx="3" cy="3" r="3" transform="translate(1744 497)"/></g><g transform="translate(-1648 -443)"><circle class="c" cx="3" cy="3" r="3" transform="translate(1744 497)"/></g><g transform="translate(-1744 -425)"><circle class="c" cx="3" cy="3" r="3" transform="translate(1744 497)"/></g><g transform="translate(-1728 -425)"><circle class="c" cx="3" cy="3" r="3" transform="translate(1744 497)"/></g><g transform="translate(-1712 -425)"><circle class="c" cx="3" cy="3" r="3" transform="translate(1744 497)"/></g><g transform="translate(-1696 -425)"><circle class="c" cx="3" cy="3" r="3" transform="translate(1744 497)"/></g><g transform="translate(-1680 -425)"><circle class="c" cx="3" cy="3" r="3" transform="translate(1744 497)"/></g><g transform="translate(-1664 -425)"><circle class="c" cx="3" cy="3" r="3" transform="translate(1744 497)"/></g><g transform="translate(-1648 -425)"><circle class="c" cx="3" cy="3" r="3" transform="translate(1744 497)"/></g><g transform="translate(-1744 -407)"><circle class="c" cx="3" cy="3" r="3" transform="translate(1744 497)"/></g><g transform="translate(-1728 -407)"><circle class="c" cx="3" cy="3" r="3" transform="translate(1744 497)"/></g><g transform="translate(-1712 -407)"><circle class="c" cx="3" cy="3" r="3" transform="translate(1744 497)"/></g><g transform="translate(-1696 -407)"><circle class="c" cx="3" cy="3" r="3" transform="translate(1744 497)"/></g><g transform="translate(-1680 -407)"><circle class="c" cx="3" cy="3" r="3" transform="translate(1744 497)"/></g><g transform="translate(-1664 -407)"><circle class="c" cx="3" cy="3" r="3" transform="translate(1744 497)"/></g><g transform="translate(-1648 -407)"><circle class="c" cx="3" cy="3" r="3" transform="translate(1744 497)"/></g><g transform="translate(-1744 -389)"><circle class="c" cx="3" cy="3" r="3" transform="translate(1744 497)"/></g><g transform="translate(-1728 -389)"><circle class="c" cx="3" cy="3" r="3" transform="translate(1744 497)"/></g><g transform="translate(-1712 -389)"><circle class="c" cx="3" cy="3" r="3" transform="translate(1744 497)"/></g><g transform="translate(-1696 -389)"><circle class="c" cx="3" cy="3" r="3" transform="translate(1744 497)"/></g><g transform="translate(-1680 -389)"><circle class="c" cx="3" cy="3" r="3" transform="translate(1744 497)"/></g><g transform="translate(-1664 -389)"><circle class="c" cx="3" cy="3" r="3" transform="translate(1744 497)"/></g><g transform="translate(-1648 -389)"><circle class="c" cx="3" cy="3" r="3" transform="translate(1744 497)"/></g></g></svg>