<svg xmlns="http://www.w3.org/2000/svg" width="30" height="30" viewBox="0 0 30 30"><defs><style>.a{fill:#4176fa;}.b{fill:#f1f2f2;}</style></defs><g transform="translate(0 0)"><circle class="a" cx="15" cy="15" r="15" transform="translate(0 0)"/></g><g transform="translate(6.126 9.516)"><path class="b" d="M37.162,38.463c-4.333,0-4.338,4.316-4.338,4.338a4.01,4.01,0,0,0,4.338,4.322s3.865.22,3.865-3.008H39.042s.066,1.215-1.815,1.215a1.835,1.835,0,0,1-1.985-1.963h5.85S41.736,38.463,37.162,38.463Zm-1.941,3.392a2.016,2.016,0,0,1,1.985-1.737,1.674,1.674,0,0,1,1.721,1.737Zm-4.959-1.11a1.958,1.958,0,0,0,1.721-2.15,2.887,2.887,0,0,0-3.194-3.008H22.91v11.3h5.877s3.591.11,3.591-3.337C32.378,43.549,32.532,40.744,30.262,40.744ZM25.5,37.594h3.288s.8,0,.8,1.177-.467,1.347-1,1.347H25.5Zm3.123,7.285H25.5V41.855h3.288s1.193-.011,1.188,1.556C29.975,44.731,29.09,44.868,28.623,44.879Zm6.108-8.627v1.391h4.663V36.252Z" transform="translate(-22.91 -35.587)"/></g></svg>