<svg xmlns="http://www.w3.org/2000/svg" width="44" height="44" viewBox="0 0 44 44"><defs><style>.a{fill:#50586f;}.b{fill:#f1f2f2;}</style></defs><path class="a" d="M1128,403a22,22,0,1,0-22-22A22,22,0,0,0,1128,403Z" transform="translate(-1106 -359)"/><path class="b" d="M1135.89,377.169c-6.36,0-6.37,6.33-6.37,6.363a5.91,5.91,0,0,0,3.85,6,5.936,5.936,0,0,0,2.52.333s5.67.322,5.67-4.411h-2.91s.1,1.782-2.67,1.782a2.7,2.7,0,0,1-1.14-.152,2.746,2.746,0,0,1-.97-.615,2.682,2.682,0,0,1-.63-.965,2.608,2.608,0,0,1-.16-1.14h8.58S1142.6,377.169,1135.89,377.169Zm-2.85,4.98a2.955,2.955,0,0,1,2.91-2.548,2.417,2.417,0,0,1,.98.175,2.445,2.445,0,0,1,.84.552,2.512,2.512,0,0,1,.54.837,2.542,2.542,0,0,1,.17.984Zm-7.27-1.629a2.863,2.863,0,0,0,2.52-3.151c0-2.959-2.06-4.411-4.68-4.411h-8.62v16.57h8.62s5.26.162,5.26-4.9c.01,0,.23-4.113-3.1-4.113Zm-6.99-4.621h4.83s1.17,0,1.17,1.726-.69,1.976-1.47,1.976h-4.53Zm4.59,10.685h-4.59v-4.435h4.83s1.75-.016,1.74,2.282c0,1.938-1.3,2.138-1.99,2.153Zm8.95-12.653v2.038h6.84v-2.04Z" transform="translate(-1106 -359)"/></svg>