<svg xmlns="http://www.w3.org/2000/svg" width="44" height="44" viewBox="0 0 44 44"><defs><style>.a{fill:#50586f;}.b{fill:#fff;}</style></defs><g transform="translate(-1 -1)"><path class="a" d="M877.375,404.227a22,22,0,1,0-22-22A22,22,0,0,0,877.375,404.227Z" transform="translate(-854.375 -359.227)"/><path class="b" d="M868,359a14.016,14.016,0,1,0,9.9,4.105A14,14,0,0,0,868,359Zm12.245,14.105a19.46,19.46,0,0,0-8.9-.277q-.593-1.48-1.281-2.917a26.412,26.412,0,0,0,7.164-4.938A12.184,12.184,0,0,1,880.25,373C880.25,373.035,880.245,373.068,880.245,373.105Zm-4.253-9.368a24.627,24.627,0,0,1-6.688,4.617,49.186,49.186,0,0,0-4.568-7.15,12.116,12.116,0,0,1,11.256,2.532Zm-12.982-1.913a47.451,47.451,0,0,1,4.664,7.191,24.637,24.637,0,0,1-11.663,1.475,12.286,12.286,0,0,1,7-8.666ZM855.75,373c0-.263.023-.52.04-.777a25.423,25.423,0,0,0,12.667-1.622q.63,1.313,1.181,2.662a19.618,19.618,0,0,0-10.714,7.936A12.191,12.191,0,0,1,855.75,373Zm4.455,9.441a17.859,17.859,0,0,1,10.064-7.551,47.331,47.331,0,0,1,2.366,9.443,12.206,12.206,0,0,1-12.43-1.892Zm14.071,1.059a49.187,49.187,0,0,0-2.291-9.016,17.735,17.735,0,0,1,8.106.382,12.259,12.259,0,0,1-5.815,8.634Z" transform="translate(-845 -350)"/></g></svg>