<svg xmlns="http://www.w3.org/2000/svg" width="17.027" height="30" viewBox="0 0 17.027 30"><defs><style>.a{fill:#6aa9ff;}.b{fill:#2682ff;}</style></defs><g transform="translate(-0.5 0.001)"><path class="a" d="M12.473,8.318v1.837h3.414a1.479,1.479,0,0,1,.72.183,1.46,1.46,0,0,1,.748,1.273l0,4.643A1.457,1.457,0,0,1,15.9,17.709H12.473V28.545A1.457,1.457,0,0,1,11.018,30h-4.8a1.457,1.457,0,0,1-1.455-1.455V17.709h-2.8A1.457,1.457,0,0,1,.5,16.253V11.61a1.457,1.457,0,0,1,1.455-1.455h2.8V7.83A7.917,7.917,0,0,1,6.852,2.158,6.79,6.79,0,0,1,8.777.776,8.325,8.325,0,0,1,12.411,0l3.663.006a1.457,1.457,0,0,1,1.453,1.455V5.772a1.456,1.456,0,0,1-1.455,1.455H13.606c-.752,0-.944.151-.985.2-.068.077-.148.294-.148.892Zm0,0" transform="translate(0 -0.001)"/><path class="b" d="M145.454,8.317v1.837h3.414a1.479,1.479,0,0,1,.72.183,1.46,1.46,0,0,1,.748,1.273l0,4.643a1.457,1.457,0,0,1-1.455,1.455h-3.426V28.544A1.457,1.457,0,0,1,144,30h-2.241V.775A8.325,8.325,0,0,1,145.392,0l3.663.006a1.457,1.457,0,0,1,1.453,1.455V5.772a1.456,1.456,0,0,1-1.455,1.455h-2.466c-.752,0-.944.151-.985.2-.068.077-.148.294-.148.892Zm0,0" transform="translate(-132.981)"/></g></svg>