<svg xmlns="http://www.w3.org/2000/svg" width="17" height="17" viewBox="0 0 17 17">
  <g id="Figma_icon" data-name="Figma icon" transform="translate(17574 852)">
    <path id="Path_18988" data-name="Path 18988" d="M15.506,0H1.494A1.492,1.492,0,0,0,0,1.494V15.506A1.492,1.492,0,0,0,1.494,17H15.506A1.492,1.492,0,0,0,17,15.506V1.494A1.492,1.492,0,0,0,15.506,0Z" transform="translate(-17574 -852)" fill="#2c2e35"/>
    <g id="Icon" transform="translate(2.949 -0.9)">
      <g id="Group_3309" data-name="Group 3309">
        <rect id="Rectangle_2564" data-name="Rectangle 2564" width="8.5" height="4.2" rx="2" transform="translate(-17572.75 -848.8)" fill="#f24e1e"/>
        <path id="Subtraction_1" data-name="Subtraction 1" d="M7.75,4.6H5.5V.4H7.75a2,2,0,0,1,2,2v.2A2,2,0,0,1,7.75,4.6Z" transform="translate(-17574 -849.2)" fill="#ff7262"/>
      </g>
      <rect id="Rectangle_2564-2" data-name="Rectangle 2564" width="4.2" height="4.2" rx="2" transform="translate(-17568.5 -844.6)" fill="#1abcfe"/>
      <path id="Subtraction_1-2" data-name="Subtraction 1" d="M2.25,0H0V4.2H2.25a2,2,0,0,0,2-2V2A2,2,0,0,0,2.25,0Z" transform="translate(-17568.5 -840.4) rotate(180)" fill="#a259ff"/>
      <path id="Rectangle_2566" data-name="Rectangle 2566" d="M2,0H4A0,0,0,0,1,4,0V2A2,2,0,0,1,2,4H2A2,2,0,0,1,0,2V2A2,2,0,0,1,2,0Z" transform="translate(-17572.5 -840.4)" fill="#0acf83"/>
    </g>
  </g>
</svg>
