<svg xmlns="http://www.w3.org/2000/svg" width="60" height="60" viewBox="0 0 60 60">
  <g id="Thumnails" transform="translate(-398 -1228)">
    <rect id="Thumbnail" width="60" height="60" rx="10" transform="translate(398 1228)" fill="#fff1f0"/>
    <g id="Group_4062" data-name="Group 4062" transform="translate(410.001 1240)">
      <path id="Path_20525" data-name="Path 20525" d="M28.465,58.12a.915.915,0,0,1-.51.764L16.393,64.652a.93.93,0,0,1-1.313-1.073l.51-1.881a.6.6,0,0,0-.655-.758C8.1,61.838,1.827,66.6,0,73.387,0,66.22,7.541,58.119,16.358,58.119Z" transform="translate(-0.001 -36.926)" fill="#e99a85"/>
      <path id="Path_20526" data-name="Path 20526" d="M35.769,31.176a16.248,16.248,0,0,1-1.739,7.376,15.816,15.816,0,0,1-.939,1.62,17.016,17.016,0,0,1-7.583,6.307q-.792.342-1.64.62s0,0-.006,0a27.277,27.277,0,0,1-8.519,1.229H0A16.393,16.393,0,0,1,5.585,39.9a18.839,18.839,0,0,1,9.345-4.017.608.608,0,0,1,.657.76l-.51,1.878a.93.93,0,0,0,1.313,1.073L26.474,34.56l1.478-.736a.931.931,0,0,0,.11-1.6l-3.651-2.5-4.776-3.269a.929.929,0,0,0-1.421.521l-.768,2.83a.608.608,0,0,1-.584.447H4.91L8.053,18.68H20.935a21,21,0,0,1,7.314,1.135,11.683,11.683,0,0,1,4.3,2.679c.136.137.269.275.4.418a11.493,11.493,0,0,1,2.809,7.509c0,.041,0,.08.006.121C35.76,30.751,35.769,30.961,35.769,31.176Z" transform="translate(0 -11.865)" fill="#e38166"/>
      <path id="Path_20527" data-name="Path 20527" d="M12.043,0l-.652,2.4-1.2,4.418H3.371L5.222,0Z" transform="translate(-2.142)" fill="#e99a85"/>
      <g id="Group_4060" data-name="Group 4060" transform="translate(0.002 21.959)" opacity="0.2">
        <path id="Path_20528" data-name="Path 20528" d="M13.1,67.327l.327-1.6a.4.4,0,0,0-.493-.472C9.142,66.216,1.987,69.3,0,74.718,1.83,67.94,8.1,63.176,14.932,62.278a.608.608,0,0,1,.657.761l-.509,1.876a.93.93,0,0,0,1.313,1.073l11.561-5.768-13.445,8.1a.945.945,0,0,1-1.414-1Z" transform="translate(-0.005 -60.221)" fill="#fff"/>
      </g>
      <g id="Group_4061" data-name="Group 4061" transform="translate(28.248 7.949)" opacity="0.2">
        <path id="Path_20529" data-name="Path 20529" d="M84.982,33.161a16.253,16.253,0,0,1-1.731,7.376,15.843,15.843,0,0,1-.938,1.62c2.7-7.585-1.194-16.782-4.848-20.358a11.684,11.684,0,0,1,4.3,2.679c.136.137.269.275.4.418a11.545,11.545,0,0,1,2.815,7.63C84.977,32.735,84.982,32.946,84.982,33.161Z" transform="translate(-77.465 -21.798)" fill="#fff"/>
      </g>
    </g>
  </g>
</svg>
