<svg xmlns="http://www.w3.org/2000/svg" width="29.948" height="30" viewBox="0 0 29.948 30"><defs><style>.a{fill:#cb1f24;}</style></defs><path class="a" d="M15.415,0a14.981,14.981,0,0,0-5.99,28.709,13.362,13.362,0,0,1,.258-3.46c.31-1.239,1.911-8.158,1.911-8.158a6.054,6.054,0,0,1-.465-2.375c0-2.22,1.291-3.873,2.892-3.873a2.024,2.024,0,0,1,2.014,2.272c0,1.343-.878,3.408-1.343,5.318a2.318,2.318,0,0,0,2.375,2.892c2.84,0,4.75-3.666,4.75-7.952,0-3.3-2.22-5.732-6.248-5.732a7.113,7.113,0,0,0-7.384,7.177,4.3,4.3,0,0,0,.981,2.943.733.733,0,0,1,.207.826c-.052.258-.258.929-.31,1.188a.53.53,0,0,1-.775.361c-2.117-.878-3.046-3.15-3.046-5.732,0-4.234,3.563-9.346,10.689-9.346,5.732,0,9.5,4.131,9.5,8.571,0,5.886-3.253,10.275-8.055,10.275a4.348,4.348,0,0,1-3.666-1.859s-.878,3.46-1.033,4.131a12.188,12.188,0,0,1-1.5,3.2,14.485,14.485,0,0,0,4.234.62,15,15,0,0,0,0-30" transform="translate(-0.441)"/></svg>