<svg xmlns="http://www.w3.org/2000/svg" width="44" height="44" viewBox="0 0 44 44"><defs><style>.a{fill:#50586f;}.b{fill:#f1f2f2;}</style></defs><path class="a" d="M960,403a22,22,0,1,0-22-22A22,22,0,0,0,960,403Z" transform="translate(-938 -359)"/><path class="b" d="M961.78,388.469c-1.667-.129-2.368-.956-3.675-1.749-.719,3.77-1.6,7.385-4.2,9.273-.8-5.7,1.179-9.979,2.1-14.522-1.569-2.642.189-7.959,3.5-6.649,4.074,1.611-3.527,9.823,1.576,10.848,5.327,1.071,7.5-9.243,4.2-12.6-4.773-4.843-13.894-.11-12.772,6.824.273,1.7,2.025,2.21.7,4.549-3.055-.677-3.966-3.086-3.849-6.3.189-5.258,4.724-8.939,9.273-9.449,5.753-.644,11.153,2.113,11.9,7.524.839,6.108-2.6,12.722-8.749,12.247Z" transform="translate(-938 -359)"/></svg>